<svg xmlns="http://www.w3.org/2000/svg" viewBox="0 0 40 40" width="40" height="40">
    <!-- Large star (top-left) -->
    <path d="M14 4 L16 11 L23 13 L16 15 L14 22 L12 15 L5 13 L12 11 Z" fill="#f9a825" />
    <!-- Medium star (right) -->
    <path d="M30 14 L31.5 19 L36 20.5 L31.5 22 L30 27 L28.5 22 L24 20.5 L28.5 19 Z" fill="#f9a825" opacity="0.75" />
    <!-- Small star (bottom-left) -->
    <path d="M11 28 L12 31.5 L15.5 32.5 L12 33.5 L11 37 L10 33.5 L6.5 32.5 L10 31.5 Z" fill="#f9a825" opacity="0.5" />
    <!-- Connecting lines -->
    <line x1="14" y1="13" x2="30" y2="20.5" stroke="#f9a825" stroke-width="0.5" opacity="0.3" />
    <line x1="14" y1="13" x2="11" y2="32.5" stroke="#f9a825" stroke-width="0.5" opacity="0.3" />
    <line x1="30" y1="20.5" x2="11" y2="32.5" stroke="#f9a825" stroke-width="0.5" opacity="0.3" />
</svg>
