<svg xmlns="http://www.w3.org/2000/svg" viewBox="0 0 1200 900" fill="none">
  <rect width="1200" height="900" fill="#fff1f2"/>
  <rect x="130" y="100" width="940" height="700" rx="28" fill="#fff7f7" stroke="#f9a8d4" stroke-width="8"/>
  <path d="M330 250c40-68 136-78 172 0-8 122-172 172-172 172S166 372 158 250c36-78 132-68 172 0Z" fill="#fb7185"/>
  <path d="M760 230c28-46 94-52 118 0-5 83-118 118-118 118S647 313 642 230c24-52 90-46 118 0Z" fill="#f472b6"/>
  <rect x="220" y="470" width="220" height="170" rx="18" fill="#fecdd3"/>
  <rect x="500" y="430" width="240" height="210" rx="18" fill="#fbcfe8"/>
  <rect x="790" y="500" width="180" height="130" rx="18" fill="#fde68a"/>
  <circle cx="315" cy="555" r="42" fill="#fff"/>
  <circle cx="630" cy="535" r="42" fill="#fff"/>
  <circle cx="880" cy="565" r="34" fill="#fff"/>
  <text x="600" y="720" text-anchor="middle" font-family="Georgia, serif" font-size="62" fill="#9d174d">Love Collage</text>
  <text x="600" y="775" text-anchor="middle" font-family="Arial, sans-serif" font-size="28" fill="#be185d">Guest demo image · replace anytime</text>
</svg>

