<svg xmlns="http://www.w3.org/2000/svg" viewBox="0 0 1200 900" fill="none">
  <rect width="1200" height="900" fill="#f8efe6"/>
  <rect x="110" y="90" width="980" height="720" rx="28" fill="#fff9f2" stroke="#d6bfa9" stroke-width="8"/>
  <rect x="190" y="170" width="240" height="180" rx="16" fill="#fde2e4"/>
  <rect x="470" y="150" width="310" height="220" rx="16" fill="#dbeafe"/>
  <rect x="820" y="190" width="180" height="140" rx="16" fill="#fef3c7"/>
  <rect x="220" y="410" width="210" height="250" rx="16" fill="#e9d5ff"/>
  <rect x="470" y="420" width="250" height="160" rx="16" fill="#dcfce7"/>
  <rect x="760" y="420" width="220" height="220" rx="16" fill="#fecdd3"/>
  <circle cx="250" cy="145" r="18" fill="#fb7185"/>
  <circle cx="620" cy="130" r="18" fill="#60a5fa"/>
  <circle cx="900" cy="165" r="18" fill="#f59e0b"/>
  <path d="M880 520c28-46 94-52 118 0-5 83-118 118-118 118S767 603 762 520c24-52 90-46 118 0Z" fill="#f472b6" opacity="0.9"/>
  <text x="600" y="760" text-anchor="middle" font-family="Georgia, serif" font-size="64" fill="#7c5e4b">Memory Wall</text>
  <text x="600" y="820" text-anchor="middle" font-family="Arial, sans-serif" font-size="28" fill="#8b735d">Guest demo image · replace anytime</text>
</svg>

